<?xml version="1.0" encoding="iso-8859-1"?>
<!-- Generator: Adobe Illustrator 18.0.0, SVG Export Plug-In . SVG Version: 6.00 Build 0)  -->
<!DOCTYPE svg PUBLIC "-//W3C//DTD SVG 1.1//EN" "http://www.w3.org/Graphics/SVG/1.1/DTD/svg11.dtd">
<svg version="1.1" id="Capa_1" xmlns="http://www.w3.org/2000/svg" xmlns:xlink="http://www.w3.org/1999/xlink" x="0px" y="0px"
	 viewBox="0 0 297.497 297.497" style="enable-background:new 0 0 297.497 297.497;" xml:space="preserve">
<g>
	<g id="XMLID_25_">
		<g>
			<path style="fill:#800909;" d="M115.877,74.379c1.95,3.92,2.27,8.36,0.88,12.51c-2.23,6.71-8.48,11.21-15.53,11.21
				c-1.76,0-3.5-0.28-5.19-0.85c-1.56-0.52-3.02-1.26-4.35-2.21c-3.15-2.24-7.29-2.57-10.75-0.83c-3.46,1.73-5.68,5.23-5.77,9.1
				c-0.04,1.63-0.33,3.25-0.84,4.8c-2.24,6.71-8.48,11.21-15.54,11.21c-1.76,0-3.5-0.28-5.19-0.85
				c-8.57-2.85-13.22-12.15-10.36-20.72c0.52-1.56,1.26-3.02,2.21-4.35c2.25-3.15,2.57-7.29,0.84-10.75
				c-1.73-3.46-5.24-5.69-9.11-5.78c-1.63-0.03-3.24-0.32-4.8-0.84c-8.57-2.85-13.22-12.15-10.36-20.72
				c2.23-6.71,8.48-11.21,15.54-11.21c1.75,0,3.5,0.28,5.18,0.85c1.56,0.52,3.03,1.26,4.34,2.2c3.16,2.25,7.29,2.58,10.76,0.85
				c3.46-1.74,5.69-5.24,5.78-9.11c0.04-1.63,0.32-3.24,0.84-4.8c2.23-6.71,8.48-11.21,15.54-11.21c1.75,0,3.49,0.29,5.18,0.85
				c8.57,2.85,13.22,12.15,10.37,20.72c-0.52,1.56-1.27,3.02-2.22,4.35c-2.24,3.15-2.56,7.29-0.83,10.75
				c1.73,3.46,5.23,5.69,9.1,5.78c1.63,0.04,3.24,0.32,4.8,0.84C110.557,67.549,113.917,70.469,115.877,74.379z M87.887,72.179
				c2.25-3.15,2.57-7.28,0.84-10.75c-1.73-3.46-5.23-5.68-9.1-5.77c-1.63-0.04-3.25-0.33-4.81-0.85c-1.56-0.52-3.02-1.26-4.35-2.21
				c-3.15-2.24-7.29-2.57-10.75-0.83c-3.46,1.73-5.68,5.23-5.77,9.1c-0.04,1.63-0.33,3.24-0.85,4.8c-0.51,1.56-1.26,3.02-2.2,4.35
				c-2.25,3.15-2.57,7.29-0.84,10.75s5.23,5.68,9.1,5.78c1.63,0.04,3.25,0.32,4.8,0.84c1.56,0.52,3.02,1.26,4.35,2.21
				c1.81,1.28,3.93,1.94,6.07,1.94c1.6,0,3.2-0.36,4.68-1.1c3.46-1.73,5.68-5.23,5.78-9.1c0.04-1.64,0.32-3.25,0.84-4.81
				C86.197,74.969,86.937,73.509,87.887,72.179z"/>
			<path style="fill:#7AC1A3;" d="M156.727,218.319c-9.38,2.31-20.35,4.53-27.42,4.53c-2.41,0-3.32-0.27-3.36-0.28
				c-3.16-1.04-9.48-9.57-14.91-19.55c7.21-3.07,15.64-5.91,21-5.91c1.15,0,1.69,0.14,1.83,0.19
				C137.557,198.449,146.977,207.269,156.727,218.319z"/>
			<path style="fill:#7AC1A3;" d="M268.387,132.039c-9.38,2.32-20.35,4.54-27.42,4.54c-2.41,0-3.32-0.28-3.36-0.29
				c-3.16-1.04-9.49-9.57-14.91-19.55c7.21-3.06,15.64-5.9,21-5.9c1.15,0,1.69,0.14,1.83,0.18
				C249.217,112.179,258.627,120.989,268.387,132.039z"/>
			<path style="fill:#f7f7f7;" d="M295.037,131.399c2.11,2.71,2.76,6.28,1.73,9.56c-1.02,3.28-3.59,5.84-6.88,6.86c-3.19,0.99-31.68,9.67-48.92,9.67
				c-3.8,0-6.94-0.4-9.61-1.24c-12.16-3.81-22.59-20.7-28.39-32.02l-66.31,18.12l-58.58,45.56l16.31-0.23
				c6.51-3.26,24.24-11.48,37.65-11.48c2.95,0,5.67,0.38,8.09,1.14c14.47,4.54,36.76,32.02,43.25,40.33
				c2.12,2.71,2.76,6.28,1.74,9.56c-1.03,3.28-3.6,5.85-6.88,6.86c-3.2,0.99-31.69,9.68-48.93,9.68c-3.8,0-6.94-0.41-9.61-1.25
				c-12.83-4.02-23.75-22.62-29.32-33.86l-36.35,0.5l-33.68,79.97c-1.68,4-5.56,6.41-9.64,6.41c-1.36,0-2.73-0.27-4.06-0.83
				c-5.32-2.24-7.82-8.37-5.57-13.69l36.33-86.28c0.69-1.65,1.8-3.1,3.21-4.2l13.22-10.28v-40.36c-2.32-0.31-4.61-0.84-6.85-1.58
				c-18.37-6.13-28.82-25.24-24.56-43.74c-17.36-7.69-26.37-27.52-20.25-45.88c5.08-15.26,19.3-25.52,35.38-25.52
				c2.81,0,5.61,0.32,8.35,0.95c5.93-13.39,19.22-22.17,34.09-22.17c4,0,7.97,0.65,11.8,1.92c18.36,6.13,28.82,25.24,24.56,43.74
				c7.91,3.49,14.31,9.57,18.22,17.41c4.46,8.91,5.18,19.02,2.03,28.48c-5.09,15.25-19.31,25.51-35.38,25.51
				c-2.82,0-5.61-0.32-8.35-0.95c-3.68,8.29-10.18,14.81-18.12,18.57v27.36l98.05-76.26v-33.78c0-5.77,4.68-10.46,10.45-10.46
				c5.78,0,10.46,4.69,10.46,10.46v17.51l2.2-1.71c4.56-3.55,11.13-2.72,14.68,1.83c3.54,4.56,2.72,11.13-1.84,14.68l-29.12,22.65
				c0,0,19.09-4.51,25.16-6.88c5.39-2.1,24.51-12.12,38.9-12.12c2.95,0,5.67,0.39,8.08,1.14
				C266.257,95.599,288.547,123.079,295.037,131.399z M240.967,136.579c7.07,0,18.04-2.22,27.42-4.54
				c-9.76-11.05-19.17-19.86-22.86-21.02c-0.14-0.04-0.68-0.18-1.83-0.18c-5.36,0-13.79,2.84-21,5.9
				c5.42,9.98,11.75,18.51,14.91,19.55C237.647,136.299,238.557,136.579,240.967,136.579z M129.307,222.849
				c7.07,0,18.04-2.22,27.42-4.53c-9.75-11.05-19.17-19.87-22.86-21.02c-0.14-0.05-0.68-0.19-1.83-0.19c-5.36,0-13.79,2.84-21,5.91
				c5.43,9.98,11.75,18.51,14.91,19.55C125.987,222.579,126.897,222.849,129.307,222.849z M116.757,86.889
				c1.39-4.15,1.07-8.59-0.88-12.51c-1.96-3.91-5.32-6.83-9.48-8.21c-1.56-0.52-3.17-0.8-4.8-0.84c-3.87-0.09-7.37-2.32-9.1-5.78
				c-1.73-3.46-1.41-7.6,0.83-10.75c0.95-1.33,1.7-2.79,2.22-4.35c2.85-8.57-1.8-17.87-10.37-20.72c-1.69-0.56-3.43-0.85-5.18-0.85
				c-7.06,0-13.31,4.5-15.54,11.21c-0.52,1.56-0.8,3.17-0.84,4.8c-0.09,3.87-2.32,7.37-5.78,9.11c-3.47,1.73-7.6,1.4-10.76-0.85
				c-1.31-0.94-2.78-1.68-4.34-2.2c-1.68-0.57-3.43-0.85-5.18-0.85c-7.06,0-13.31,4.5-15.54,11.21
				c-2.86,8.57,1.79,17.87,10.36,20.72c1.56,0.52,3.17,0.81,4.8,0.84c3.87,0.09,7.38,2.32,9.11,5.78c1.73,3.46,1.41,7.6-0.84,10.75
				c-0.95,1.33-1.69,2.79-2.21,4.35c-2.86,8.57,1.79,17.87,10.36,20.72c1.69,0.57,3.43,0.85,5.19,0.85c7.06,0,13.3-4.5,15.54-11.21
				c0.51-1.55,0.8-3.17,0.84-4.8c0.09-3.87,2.31-7.37,5.77-9.1c3.46-1.74,7.6-1.41,10.75,0.83c1.33,0.95,2.79,1.69,4.35,2.21
				c1.69,0.57,3.43,0.85,5.19,0.85C108.277,98.099,114.527,93.599,116.757,86.889z"/>
			<path style="fill:#f7f7f7;" d="M261.957,56.449c2.19,5.34-0.35,11.45-5.69,13.65l-0.81,0.33c-1.3,0.54-2.65,0.79-3.97,0.79c-4.12,0-8.02-2.44-9.68-6.48
				c-2.2-5.34,0.35-11.45,5.69-13.65l0.8-0.33C253.647,48.559,259.757,51.109,261.957,56.449z"/>
			<path style="fill:#f7f7f7;" d="M176.477,159.979c2.2,5.34-0.34,11.45-5.69,13.65l-0.8,0.33c-1.3,0.54-2.65,0.79-3.98,0.79c-4.11,0-8.01-2.44-9.67-6.48
				c-2.2-5.34,0.35-11.45,5.69-13.65l0.8-0.33C168.167,152.089,174.277,154.639,176.477,159.979z"/>
			<path style="fill:#f7f7f7;" d="M158.417,21.939c2.2,5.34-0.34,11.45-5.68,13.65l-0.81,0.33c-1.3,0.53-2.65,0.79-3.98,0.79c-4.11,0-8.01-2.44-9.67-6.48
				c-2.2-5.34,0.35-11.45,5.69-13.65l0.8-0.33C150.117,14.049,156.227,16.599,158.417,21.939z"/>
			<path style="fill:#f7f7f7;" d="M88.727,61.429c1.73,3.47,1.41,7.6-0.84,10.75c-0.95,1.33-1.69,2.79-2.21,4.35c-0.52,1.56-0.8,3.17-0.84,4.81
				c-0.1,3.87-2.32,7.37-5.78,9.1c-1.48,0.74-3.08,1.1-4.68,1.1c-2.14,0-4.26-0.66-6.07-1.94c-1.33-0.95-2.79-1.69-4.35-2.21
				c-1.55-0.52-3.17-0.8-4.8-0.84c-3.87-0.1-7.37-2.32-9.1-5.78s-1.41-7.6,0.84-10.75c0.94-1.33,1.69-2.79,2.2-4.35
				c0.52-1.56,0.81-3.17,0.85-4.8c0.09-3.87,2.31-7.37,5.77-9.1c3.46-1.74,7.6-1.41,10.75,0.83c1.33,0.95,2.79,1.69,4.35,2.21
				c1.56,0.52,3.18,0.81,4.81,0.85C83.497,55.749,86.997,57.969,88.727,61.429z"/>
		</g>
		<g>
		</g>
	</g>
</g>
<g>
</g>
<g>
</g>
<g>
</g>
<g>
</g>
<g>
</g>
<g>
</g>
<g>
</g>
<g>
</g>
<g>
</g>
<g>
</g>
<g>
</g>
<g>
</g>
<g>
</g>
<g>
</g>
<g>
</g>
</svg>
